<svg version="1.1" xmlns="http://www.w3.org/2000/svg" viewBox="0 0 2940.5824768832235 1738.8893721111226" width="2940.5824768832235" height="1738.8893721111226">
  <!-- svg-source:excalidraw -->
  <!-- payload-type:application/vnd.excalidraw+json --><!-- payload-version:2 --><!-- payload-start -->eyJ2ZXJzaW9uIjoiMSIsImVuY29kaW5nIjoiYnN0cmluZyIsImNvbXByZXNzZWQiOnRydWUsImVuY29kZWQiOiJ4nO1da1fiTLb+3r+C1fN1yNSue803VLDxgtjatjpnlitCXHUwMDEwlJtcXFScNf/97MJWXHUwMDEyQmKCgPE9J+96226CSaWyn72ffald//mWy31cdTAwMWZN+t73f+a+e081t92qXHUwMDBm3Mfvf7efP3iDYavXxVN0+u9hbzyoTb/5MKz16l7+0bt+aHmP//zHP0inPTC9XHUwMDFhXFz3633OXHUwMDA2jaFcdTAwMTRercFvRkTfsja5bd5cZu95rXV/M+w3bno12Vx1MDAxOKvay028ttfxuqMhXvZf+O9cXO4/0z99w1x1MDAxYXi1kdu9aXvTX5iemo1cZoya/7TS605HqYyihFx1MDAxOKbfvtBcdTAwMWHu4O1GXlx1MDAxZM823PbQm52xXHUwMDFmfe9cdTAwMWLvudw5PNhcdTAwMWJcdTAwMWaempL3Y+9qnDezuzZa7fbJaNKejmrYw6manVx1MDAxYo5cdTAwMDa9O+93qz5qvs6X7/Oo31x1MDAxYfTGN82uN7RPXHUwMDBmb5/2+m6tNZrYz1xiefv0ZVxu/pmbffKE/8pcdTAwMGJcdTAwMDZcdTAwMGXnjFBJiKBKmLfT9lx1MDAwMtRIRzGcXHUwMDA1KrhRZH5cXNu9dm9gx/U38Ox/s5Fdu7W7XHUwMDFiXHUwMDFjXrf+9p3RwO1cdTAwMGX77lx1MDAwMN/W7HuPf55cdTAwMTg0cYj/YG9faXqtm+bIfofPxj70pm9cdTAwMDGYXCJEKW7421x1MDAxOXvXfrk+XHUwMDE1iH/7Z6pb/zNTr1x1MDAxMjKTXHUwMDEx9ueT/87Gb79fnJctv3z53rtus4vq3cnur/a49lx1MDAwNOWT7oFbLb09Y0BcdTAwMTjdwaD3+P3tzH//XHUwMDFld91+sdA+uFx1MDAxZpx47uXB9Vx1MDAxZN0+yuvKeFx1MDAwNdd1de1gb49cdTAwMWbwYq9RuHp6Krrlx+NcdTAwMGZd9/XrI+9pXHUwMDE0vNDLXHUwMDFkd/Ol33ensnn983jvSY+PXG6jQ3Xku+yfv83e17hfd1+AXHUwMDA2ilNNtDIglXw732517/Bkd9xuzz7r1e5m2PzmXHUwMDFib0gnXHUwMDA0xulXXHUwMDA3XCJKXHUwMDFiaCVccuVcbnhibbD4mbOtXHK4XHUwMDExjtYgXGJcdTAwMTVSqXltwFx1MDAwNHfoRrRcdTAwMDHRjp1wVE5UhFx1MDAxNVx1MDAwMeXzeoBr0FJqXCJTqIGA7ITwvlhcdTAwMTRR0zClpP1LXG5RnL3zXnd00nq2XHUwMDEzT0ng05LbabXtXHUwMDFjz1x1MDAxZXcqozhT1UHvXHUwMDE2TVj+cJjf+lx1MDAxZThbaLdurNR+r+GovUFAoEctNMZvX+i06nW/XHUwMDAxrOEt3VbXXHUwMDFilJNcdTAwMTiu3qB10+q67dNFI4rF2bK2XHUwMDE37ZHiRHOaXHUwMDE4bZ273lx1MDAwM6+fb52a592yLOSP9zrkKttoXHUwMDEz4FBtXHUwMDE0INyE5IqyINiClneNaKNcdTAwMDCO9Fx1MDAxZiZcZjlcdTAwMGXGXHUwMDExglx1MDAwYq5cZiGUo3ZcYpliqilDfPhcdTAwMDb6XHUwMDE3MsU/YHv42NW3w4G5aNVuaq3+XHUwMDEw3Fx1MDAxNVxct6XH55NO/7RXuijc3p/VLus/K91cdTAwMTVcXLdydjC6XHUwMDFln1x1MDAxNp/K1f5Ri4HpqcLlXG6u+3xWPClcdTAwMGa614+TYVltyWZvtLV3sYLr7p+X749O2lx1MDAwZqduqezV3FGrdTlcXMV110WhdtjBgFx1MDAxYzZPXGbpXHUwMDFjmdroqkd15SzZdd/nOlJzXHUwMDAxaVxmzHJcXEfOf/iqfSlcdTAwMTCBJIDPvvCe9j1rbFXpfa16Xvl5sTfqXHUwMDFkXT/tnslltC/Mfb4+7Vx1MDAwYkQ5gGyGc8208VOHqeODbpGmnFFqtJGMzI9rddrXMFx1MDAwNzRcdTAwMTPIK1x1MDAxMjFcdTAwMWRcbpSjv1x1MDAwNmb2NOuhOstJYlx1MDAxYaozm/FXqnOKROPGXHUwMDFi5Fx1MDAwZU9cIohO22uMYmjOqNeP4jiBMc9cdTAwMTNcdTAwMWHffWOh9Fx1MDAwMuVFWGLKRKFcdO07J4Qzk9x1iLdimYRcdTAwMTPXyFx1MDAwZqRRzFx1MDAxOKQyXHUwMDFjXHUwMDAyaGKSWMdcdTAwMDHJzlSgqFlcdTAwMWKa8PZhXHUwMDE0KVx1MDAwN7kkXGKhKGVcXGs9jyltvVx1MDAxZE3W7j18XHUwMDEwUsORO1x1MDAxOG21uvVW9ybInf5cdTAwMDTBylx0mLB9OLdvUYn0kirUOoBcdTAwMWOTWffJ95VGrza2XHUwMDBmkieOXHJcbklhIzKCMeA0xM+8bv39QcV7XHUwMDE4b4OCXHUwMDA1YyBcdTAwMGVhktoxoFxiXHTGgSpcdTAwMTlcdTAwMWFE21x1MDAxZI62e51Oa4STXe21uqP5SZ3OXsFcdTAwMDK46bkhjYBcdTAwMGbhPzeP9L69YpB8zv6Wm0Fh+o+3v//771x1MDAwYr+d91x0qT3mxXP2+9/8P5fzsUikXlJcdTAwMDbfqlAp4pvFqpxcZsRR84hWuldcdTAwMGaD0q5cdTAwMTh0itlWS4xcdTAwMGLHgJTMKI7w08GARlx1MDAxZUA7SlxuwGlcdTAwMTLoi/k90pV7WUY6OFx1MDAwMqHg5U8x0zazXGIncpLZN/BPn6L842Xhp5SkNP8r97LW5VxynVx1MDAxN5qVw93b6lx1MDAwZdtVg8bZ71xuPdktruC6cvd6eHToXHUwMDBlJ6Jyf9c/eL5cdTAwMWJcXPWfV3Dd9vFPKFx1MDAxN381d8ad0+PJXqFSrFx1MDAxNn9/LS+A0ij9XHUwMDAwVDCKmpckXHUwMDBmwpw83CrWYePG3Y+y1JWnWsu7n2RbQXDGXHUwMDFjVFx1MDAxMlx1MDAxNFx1MDAwMFx1MDAxNNWScFx1MDAxMdRcdTAwMTBKOkRcdTAwMTBkXGKU4Vm5xpgn42hcdTAwMDc4qlx0ncxcdTAwMTNcdTAwMDDUV1x1MDAxYU23TqFcdL6KIzC6bl+9pFx1MDAwYodXOFx1MDAxMnez7kDo7ks6XHUwMDA1kkRhXHUwMDBiPWykMjZ7lVx1MDAxOFvxOjeT2EJcdTAwMDWCvi1B3m9tXHUwMDE5SMFcdTAwMDPYYmJTXHUwMDExTlx1MDAwM3gnKVx1MDAwNJFcdTAwMDRsoHVcdTAwMDG+0ENcdTAwMDGKgyRcbikmkVx1MDAxMubhxlx1MDAwNGGcXG6dJrz55Z2ERXx86lx1MDAxM1x1MDAxOPSYOFx1MDAxOM5xvJQv51x1MDAxM8TTyXd8XHUwMDAydLglNYRcdTAwMWHrXHUwMDE0WM38pV2CSFx1MDAwMbVHPiSbq/RcdTAwMTAkn//wjVx1MDAwMCitXHUwMDEwtXjfxErKze9duLdb3d875/d9b6BEp3NLs62kXHUwMDE02l1B0PqiNeWUq5k5ndp/dM1cdTAwMWMhXGZFb0miXHUwMDE2I+tzXHUwMDEwOGGOn/v7UixvWsosqIAghlF0Xz7JIXgv83/Sh+Nxp5qXx0160tOFfP74svSF/YGs8HZgUbBlilx1MDAwYsvak0fvXHUwMDE3v6NMo9ZcdTAwMDB10GVcdTAwMDdinVx1MDAxNC59XsxcdTAwMTS1TIlNoVY6Ulx1MDAxYUMhIWvHMTEhzeZoXHUwMDA021x1MDAxY2vf+XG4plx1MDAwMoV37Mo8gbdcdTAwMDNZXHUwMDBlVTpcblWoZ6lGtmGSXHUwMDFiw2q9+Lg1qWz/uFx1MDAxZuYrk8vHTs0z42zDSlx1MDAwYu1cdTAwMTBFla39QYYn55xhLjdlXGaBoN+NQpxcdTAwMTRWqO9svFwiXSHgV/GGd9BcdTAwMDfNnbw4pJv1hFx1MDAwM3eORVx1MDAxNM7BQnopXCLtXHUwMDE0XHUwMDEyXaaZzb0mRlx1MDAxNMgnqXZPOpPSXHUwMDBmt/ysXHUwMDBmcWSPZ1x1MDAxOUeUYlx1MDAwZfJoXCJcdTAwMTlHMyHn7Fx1MDAxNLdcdTAwMDFfzo1hmivLQddcdTAwMDaoOW65qMZHK1x1MDAwN/xcdTAwMTHqkFx1MDAwYlxmRoJAqinShJzCXFwznEL6XHUwMDE013je2Ys4s2I3MnBupT5k5Fx1MDAxYrZH6N3OrvbN/zM1vCNL+Fx1MDAwNEHnXFxQlTzrLWvlfumocJP3nkdqp/WzVNi/WapgdpNFJCTeYFx1MDAxMrohfEdid1x1MDAwNu+ggPjyT6/wXHUwMDE2RiljOHysmP7/4b1cdTAwMTZ4R71ge4RebUp0R9LhyORcdTAwMTAnWmlcdTAwMDYpSsSuTFdu7f04fbjYaV1cdTAwMWNcXFdcdTAwMWbG8jLjyWOFbDjadjNFXHUwMDFjhbSTSUU4alx1MDAwMD03rtVhWzCH2aRvslp4oMZcYiTCf0kqvNvuNdxccpPgP/eMRdAySSCYJlx1MDAxNCGNS1x1MDAxOVx1MDAxZlx1MDAxMMsmiFx1MDAxODiSo7MoXHUwMDE5VUD4XFxcdTAwMDVcdTAwMDbbmEtJ6fvxVcqDy9DCXHUwMDE0mFx1MDAxYeBcdTAwMWFZzV8jXHJcdTAwMTRcdTAwMWZXyflcdTAwMTMuWmhNJVx1MDAxMlx1MDAxYfxBXGbhvi+9XHUwMDE2lPlLV5RcbtSTtZ6C1jXEXHUwMDExVpMx8uWoKFx1MDAwZVRKm8BAvYnvLDxg4ygkO1x1MDAxMlGoXHUwMDA1RTWvUlxy+Cull/LRsm+PkNSnpFx1MDAwZpHKT0TyXHUwMDA3YVx1MDAwNIBKU3xcdTAwMTZcdTAwMWazz6TqMyBjVVx1MDAxZohcclx1MDAxMVxiqphjXHUwMDBi2XHSXHUwMDA1p5wv4lx1MDAxMcBcdTAwMWT0UqgtQiRSg5l958371/hA1LCM84pVqz7UJehcdTAwMTlcdTAwMDFhRtvaO7Tas4hVhPLT2nym9iNcdTAwMGVHd1RJw4XkXHUwMDFhQENovJBqeF9L10VcdLs9wmKeUtdF1tGRyKXDQFx1MDAwNJWSQ4pin+fno2F++PTYuGw+P23z695Ns5O5QjrhXGIwiqBjJFx1MDAxNEdiMIv0Tlx1MDAwYutcdTAwMDBcdTAwMWPU8EQjmrmgNLhcIlx1MDAwMN9cdTAwMTK+XGJpXGJcIlx1MDAwYjWfNOuLjFAjXHUwMDFjTkFcdJu9SVpcXMdcZlx1MDAwMlmlWsv42S6UQ6XAXHUwMDBiKZRpQbSvxulcdTAwMWSXqoRPnLNlbrmHlpsrVMvD3Kg5lYfc9qDX3etdb9bdSjCeWITGV7tEl+RcdTAwMTFNXHUwMDA0V1onL3dcdTAwMWSVxaSwO7rr353nm4P720dhqqOsoXSuXHUwMDFlXlx1MDAwNSmJXG6gknHErERhREaCdoP4TP3K81x1MDAxMYw7vnDWQk5cdTAwMDI0+Fx1MDAxZMbmYYpcdTAwMWFcdTAwMWWE4OncsZWXw69rXHUwMDExb73Bt/eG91viZuc5vzesuPvtg1x1MDAxZl+rTIVGV5dcdTAwMTkpXHUwMDAxhU0nXHUwMDBmIfLn0lH951x1MDAwNLaPq/Vyr+2SR2W8bOONK1x1MDAxM6wum1vkb5jDUPFcdTAwMTCmXHUwMDA1XHUwMDFhUuVDwcprYKlDiUpcdTAwMWNFNESiwfSX7GbfXHUwMDAyJrV4tr579LLkc8OhxMCdY1x1MDAwMVx1MDAxNVx1MDAxM1CMXrHBKOXoWcvkJixedWVcdTAwMTJSSHNcdTAwMWNkclx1MDAwNm1cdTAwMThQZPBcdTAwMTBcXLnNbDBcdTAwMDMnXHQhR1xy+qzrM2G2S817XHUwMDAxRWaXnzF7jlxuRlx1MDAxOFx1MDAwYnnVXHUwMDAy/X/NSNaD9atee2pcdTAwMTSbOmdEoHPEZ8WMOb9cdTAwMTdr36GiXFzaXHUwMDAwXHUwMDFkcMFefbWUfnM8TfNccsqfQTNGqlx1MDAwNYOygUVum46hvlx1MDAxNvhlTWQ43/mV3OVoIbZHSHxnl/vm/7lcdTAwMWNcdTAwMTePLlxykspcdTAwMDBcdTAwMDWRotvWeY1cdTAwMWXWny5vbm+LsFx1MDAwZr8qR1dX3kG2XHUwMDE1XHUwMDE5ZyhyRnF0Slx1MDAxOTJxXHUwMDEyrFx1MDAxZFx1MDAwMNhcdTAwMTg1oGouuVx1MDAxY9ZjZi7AXHUwMDE1YuKMS4FcdTAwMGaSii+snIh/oOtNZlxic3S60CBcdTAwMDZZIE78XHUwMDFlKMa7u/fupbx6fr49L7v3La69hs42KIQt7Fx1MDAwNlCaXG7OlZBBvozOnsNcdTAwMDW+XHUwMDBiYktqbFx1MDAxZqo1WnfEXHUwMDFmXHUwMDEwwZOHjFxmVVx1MDAwMqGcbUu+NGN2a6PWQ2vU2nRccurcvZdlzZGFalx1MDAwMMiYXHIq4OTGJl7PZFx1MDAxMldUMlx1MDAwN5+TKVxyijKf6Ex/XHUwMDFkKTVVXGZJmVwilNN1xn1AcrtgXHUwMDAyJ5xYVqF83VhmzeZcdTAwMWOuJFFcdTAwMTJcdTAwMTDkOGJcdTAwMTUucSFaS4P0MOPx2Y0sxmRIXHUwMDFmbEBPXHUwMDAzej2Ev7ZcdTAwMGZJSZLj+dPbXHUwMDE4gmlk1NKLusagXHUwMDAzJqxcIlx1MDAxNCBtfIdcdTAwMTL0x742SY5cdTAwMTRae+RD8rpKlsyjXHSBsrNspEhOXGKGhVx1MDAxM92tXHJvOlx1MDAwMzH5Vb3d2Vx1MDAxNVeTx2wrLiaNg1NryYDt/iMgyFxiJJVcdTAwMGU6XG44+5IgXHUwMDAxZetjyYxcdTAwMTLHX2QpXHUwMDE2sFx1MDAwMlxygVx1MDAxZS88rLk44UiV03WqXTlPXldcdTAwMTdHtTt2d1pcdTAwMDdXQ124ft7x7oBMavmvxb+ju1wi2j6titnAUmK43an9xq/bu0H+5NdPfXWuXHUwMDA3xYeDjMONc8RcdTAwMTPqOdCGMYOKL1x1MDAxOF2TQqFcdTAwMDUwkmskXHRinVx1MDAwNe1cdTAwMWG1KkveXHUwMDE3XHUwMDEx2DTlv8mUrUghi1x1MDAxZqff/aY7/Fxm6v3nvkvSblx1MDAxNZ3/XHUwMDEx1pc1RKSoiohVW5mEXHUwMDEzuqhcdTAwMGW31MxcYjRkSlx1MDAwNKsgOKKJai7RKHDbN3GN6yltXHUwMDAxIFxiw1x1MDAwMcdiu8/wMKhAase2cFx1MDAwNsqNwqGy0FxuXHUwMDExpqRcdTAwMDJK+eZcdTAwMWElLoWx9dNu4lBh22Hb4DSjyMKUWo52x1x1MDAxM7L3qL/Utv1cblJSpP5cdTAwMDRZ0Ncm2ZFcIjo9XHUwMDFiXHUwMDEyzpQkO9Lgk2iCrfGkomlcdTAwMWGg1C7dh5u9/fFpZ9x+Lp7sXHUwMDFlnO94nWyrKJswQ+lhwi7IJVLKYGzA1u9cdTAwMDOx1VwiTHKl1fq6NKFcdTAwMDV3KFBtiEy40kVQ5ChcdTAwMWJt3Lo5m7/jNdBIXHUwMDBmc91ertfIvSaNc6Ne7trLeU9ebYyjy7nDXFzfXHUwMDFi5KrWSG+WXHUwMDFiLDG+WHzGtzFl0ZXkjNpcdTAwMGW2KdqdbLdcdTAwMGYvi/S6dNHIdy7auzejMzhiK8VovWf17WpcdTAwMTeagnKUQP2nXHKg7eHBNkVcdTAwMDDcXHUwMDA2q5Vly4qIdaKULuLj6Fx1MDAxNlx1MDAwNTNI4e0hXHUwMDA04YbodI1PVu74fqCial2Ob+x1199gNI1CW8q+0siWKlxiWsPQxiZcdTAwMGZfbZ3ziVx1MDAxZZJO//DhZNxtjbbY4TCfeeRyXHUwMDEzh1xcoVx1MDAxZGGkIHq6XHUwMDA2hJp1ht6Fwzio5Fx1MDAxZEZt43p8QfKvaF9fe/5DLp8r/jFXm7WgXHUwMDBiR7BcdTAwMTTGonv4aVsgJSBFzrhDxtvXfF+OXHUwMDA3leZx4er8yC1Nsm9cdTAwMWRcdTAwMDVB+0OYXHUwMDE0XFzZXHUwMDA3XHUwMDBlXHUwMDA2rVx1MDAwMIml3ox1TI8x1IHCdkjdXFxcdTAwMWLfzWOMfjrG6IcxpqNcdTAwMTPIknPAl55cdTAwMWNjXHUwMDA3XHUwMDA3P3pXusFZdb9cZjt7J1BcdTAwMTjvNLOPMepcdTAwMTij7NpcdTAwMTJq1+1cdTAwMDQgRrl2pESEyekqblhfXHUwMDFhXHUwMDA2TFqEMWEo2ei6xc0jjKF8V3qjz1x1MDAwNdn8IJbji9FcdTAwMTFjXHUwMDAwXHUwMDFi4ZcpXG41Lk1+sL9/1ds66J5cdTAwMTZr5GBHllx1MDAxYZB5oEm7gFx1MDAxM1x1MDAxNOGSojjN7UzFbJvYzVx1MDAxMEalXHUwMDFklWbNXHUwMDAwcK5cdCV/bVtW+Vx1MDAxY2xVls3A+HpYzHNDTlx1MDAwNFx1MDAxOJLCbsW7z9mEk1wi0pFaXGIlmJC200hcdTAwMTBNNj9cdTAwMDO2zzVnXGbnY31cdTAwMTlcdTAwMThcdTAwMDbEIVxuNGdcdTAwMDJHYYTPqZqVXHUwMDBmUIdcdTAwMWKJbF3Yclx1MDAxMuPbRetcdTAwMGbCbGtwKtPtsZndXHUwMDA0zLuF+f4l+ExyfHCjQVNcIv1cdTAwMWIoLbWiPVFyJj5QmPOng5h9sagnNZfaKuZcdTAwMGZcdTAwMGXvK+Vtolx1MDAwNdtcdTAwMWX5kEzPrvfN/zO1ZotePsC1lohlkZwnxMfvsqnYULPLmMBcdTAwMTKixVx1MDAwMYFcdTAwMWWvUdTWdMr1lUozRlx1MDAxY6UlurJUXHUwMDExqv1lT4HkslxyJ6FcdTAwMWNw9FwifJWbr1x1MDAxZHw1tyvXUjVcdTAwMWbMrmpLrDpQtXG7+5hWwJDwaeYvqFxcm2Z7N+3sayVcdTAwMDLEhk2UXHUwMDE0XGbZqPzo8L6SZstHXHUwMDBitj1CXCKdUrNFZ6Sj91x1MDAxMlV2/1x1MDAwZiVTZLtaP7u1w1Jl2L/aZs/6x+7T/f3ubcZVm1Y0hrNcdFx0ttdcdTAwMDWViGKm6TqbXHUwMDE0SO4kb+1cdTAwMGZoXHUwMDAwqbItkrOtwpZyf8qNXHUwMDFj/Vx1MDAwN8shOEfT0b1mfL16bm/c6du8b1x1MDAwNb+a628+XHUwMDEznW5oy5Fcclx1MDAxZb3ommjKXHJnKULs8Vm9bEJcdTAwMTKtXHUwMDAwcYyy5Vx1MDAxOZJTqtjcXG5cdTAwMTJQSPNcdTAwMTCvXHUwMDA2XHUwMDE1olT+lVx1MDAxOasvXHUwMDEzXHRcdTAwMTZZ+7qCzNiGMO91XHUwMDBlYVx1MDAxNFCPXHUwMDFhk/FYxar5XHUwMDA2cZBcdTAwMTOihVGGo0lcdTAwMTe+XanXyTfSNG5kgCxcdTAwMTD9XHUwMDA1KewqfvN/yZXKR8v29HRYrFdEOSiJjrrirVx1MDAwMKUlxTZccsd37rDzY7foXHUwMDEytssqslpWg+vDjOs3ZYyj0Vx1MDAwN2HUVuLCfCN3QFx1MDAxN5dpdLRcdTAwMTRRQoC/KH31UVftSIZsM1nQXHUwMDE1XHUwMDA3g+STZT0ktFx1MDAxNOnYbnq1u2Gu9VZfNjXy05Hmhu6oNWy0vGFcdTAwMGWpQr01QpHNXHK9Uc7t1nNcdTAwMWR3cGdLz96IgJMr3vwz94i/O8i1vVx1MDAwN6+dXHUwMDFieG6tiVxmYcPh3I080XJeh46mODYwSlx1MDAwNU/RXHUwMDFhbfv3r765oMXz+0pd7Z7Xh3dcdTAwMDV+n3FcdTAwMTWQXHUwMDE3gNqXI5QkIXbb+2CKXHUwMDEzqI23+DYsXZtcdTAwMDbgWjhEci5cdTAwMTYnXlx1MDAxOHPClflcdTAwMDZcZlxybPaVeS2gk2qBUlx1MDAwYiX9Xz/dpjvKvaZDTiZDRE2u1O495nZa7s3A7fx7s0hOPKrlXGZytD3WlFDOeIplaMfi5mej9vvysX7s3Vx1MDAxZrn6rnF/d5pxMNqtxuw2eYoxispcdTAwMDf0fFx1MDAxNlx1MDAxNGy9gaboayhqxPpiXHUwMDAwONtcdTAwMGWYyJVoi8BcYsounVx1MDAxM+or1c0lRmOhXs/h9dypeUJr1d5wscGC+y+FMFx1MDAxNplcdTAwMTdFuVx1MDAwMs3S7FxcdFx1MDAwNs9Hqnk/uFx1MDAxOHVEZXx8cTvaXHUwMDE3O1lcdTAwMDfYdKFnJMCEUI6BXGZcdTAwMDBMKieUK5BKMVx1MDAxY/9cdTAwMDabpn0mvv6n+9lcYsNcdTAwMTHEYix+7YaO6WDAcJJcdTAwMDUlycPZt8fjfONE7Vx1MDAxNbYmx/dqcrpd/VXZXlx1MDAwNmrz9G19XHUwMDBirPLI42J4ZZ45VFx1MDAxYUNwXCJcYjXKqHW2LNTBnVx1MDAxZcii2Jmv48Rb63+FrNeoVIU9K1+8sX9evj86aT+cuqWyZ8WzdTlcXEXXglx1MDAxZHYwIIfNXHUwMDEzQzpHpja66lFdOfvQdd/bXHUwMDE0m+zWrkn30ZTd6k6hOt4zXHUwMDA3Py8g1dpccqVcdTAwMDWBmVx1MDAxY228XHUwMDE5XHUwMDAyXHUwMDFhXHUwMDBlqZmf4bxcdTAwMDfcxc+cbeByo1x1MDAxZLRMiFumSVxiuII71OdcdTAwMGWu0SG0y7uMJolbkVx0u0CW+TvFrsc+Ko42W0n8y7piQrPrvtrH6qB3i+Ymlz9cdTAwMWPmXHUwMDBiXHUwMDExhvGj202/Y2TmXHJmcEixSItOMJlIrEmhbVx0c4pVyPGaMoi1pltrjlx1MDAwN15qRrp6tDFBYsyksKuoiCTo9OFcXKHgRaLtxbJ9JMFkXHUwMDFjroiiQlwiK1X+XHUwMDFl2DMjSSw7NnZjXHUwMDE4Y5uqmVx1MDAwNVx1MDAxY1XaXHUwMDFksz5/M811pp3igZJ7p31cdTAwMDEwXCK5pFx1MDAwNtUnKjdleOhhXHUwMDEzJZdcdTAwMTI3XHUwMDFkppJcdTAwMTJcdTAwMDBtnVx1MDAwNyl9XHUwMDEzk/Onx7St9sBpm/a4UeGWw0vkk+ZRv9HqvEhhtkdYjGfX++b/uVxcg99IXHUwMDE3XHUwMDFiXHUwMDAw7Vx1MDAxM7O9bVx1MDAxM+u0bblTzt/SrdbTLnR2Jnf9651fg8zrNGPAUWi+XHUwMDAxdZpcdTAwMTWpYCVcdTAwMGIw6XBcdTAwMWJaR4lk0jCxPqVGfWOdMVx1MDAwN1x1MDAxMqb6mjPFKNFpYlcrpPrvUeeHy+HBU9VwPchfnaur4nC/9jz4PKb/ct1+sdA+uFx1MDAxZpx47uXB9Vx1MDAxZN0+yuvKeFx1MDAwNde9XHUwMDFll8encGw8L18pXteal4OLZnFcdTAwMDXXdXXtYG+PXHUwMDFm8GKvUbh6eiq65cfjZNd91Vxu0UZHo6D7mvStyTVcdTAwMTHRXHUwMDAxcmEpOaTZXHUwMDA1YbFQZV63XGLqXGJcdTAwMDaKTn3Bed1CKXXMZnRcdTAwMGJQu8Vr4q4thtsjXavwbHon4ejdSz6o2nZHjd6gsyb35Fx1MDAxZFM4757MjSlcdTAwMTZu0Vt5Rm87XCIow5dcdClcbkTi9XBW8aZcZnHsnkVM2VxuNyPmWpObl86IRGhpXHUwMDAz5yY6XHUwMDFj8FG8aVx1MDAwZVx1MDAwZdOSaVx1MDAxMMK6XHUwMDE5XHUwMDBiYIcj5YxcdTAwMDIldp9cclvtXHUwMDE1zlx1MDAxOGvggvBcdTAwMGba+Vx1MDAwNP7Jcna+1Jzc9o+voFEvNarnN/k73qxcdTAwMWaks0OC+1tHr6HmLlx1MDAxNoYz58dBXcfAXHUwMDE2+Fx1MDAwYo7ESiza7MTWvaFjQtBcdOLGuvucrddcdTAwMWJcdTAwMDKHcrt0RFx1MDAxOYWSXHUwMDAwQi/y0excdTAwMTYs0jpcdTAwMGZMSbvWlK2kjfNnukOR0LFHPoya2fW++X+mTudHrlWy27Pa/bSTXHUwMDA3Ulx1MDAxNyNjsfLMTCCVK1x1MDAwN1x1MDAxNCGGK4qeN51v0KGFg0TFXHUwMDE4XHUwMDE0fcqJXmP1MFxi7nDCk+9cdTAwMDRKOUP6XHUwMDA0a281/8ZWfI0m1s1W/lx1MDAwNC7L9VxcPld1J+2eXHUwMDFilcz/KGV5x+JHRFRcdTAwMDNcdTAwMDNbkrdApKOAupji/ypF//R4Ry+7xFx1MDAwNVx1MDAxY0I4s23yiEIhXHUwMDBiOlxuQjpcdTAwMWO4me5cdTAwMWXAJV+jo2C1L1x1MDAxMXZcYlbjcbaQuHBcdTAwMGVSXHUwMDEzQqlAlSC0mVx1MDAwNyRoXHUwMDFiJNbpat02yFxcznp711c34rzZ0OeXx20wnadfzZTMXHUwMDA150guo1x1MDAwNVbMXFxcdTAwMTZTXHUwMDAyXHUwMDEyPNZcdTAwMWS1VYwqpoRt8ogsKrBcdTAwMDDRx56s6Go06dxuem4rWv5cbkxlIVbskVx1MDAwZsNkVUwlOmZLXHUwMDExclx1MDAxY1VmYm25XHUwMDE4XHRZZyp26SFcdTAwMTA0+UCNXHUwMDEwOrhDMuXcXHUwMDAxw6ebfTBK8Fx1MDAxNayPqfCUTEUxbjdjX/uKpk9lKvn18pR3XGZ8JE/JJ2IpsdlcdTAwMTJcdTAwMTa56ldrbl20XHUwMDE0XHUwMDAxTVPbYz9J6dfg5pZcdTAwMWX3+9unnVKhkXmeXHUwMDAyXHUwMDEwLMCf4ylz5fcx9Vx1MDAxNlx1MDAxZlx1MDAwZmguSJbIcK5cdTAwMDS1oWRcdTAwMWNSrb3ZYK6kVzrbuZ0861wiI5Oz2/3bo8tJfitpjmAweL49abbrR+fDh5Iodlx1MDAxOFxcbK1cIvdQfdSl4Vx1MDAxOenvuXftW5pcdTAwMWaUan1SXlXuXHUwMDAx//RvbbCusqhIpNptOrXhLHmpxuJ3lH2kXHUwMDEy4VhbYygwNIbzuVx1MDAwN8Y3XHUwMDA2VWJcdTAwMWPCXGZcdTAwMWFjKohRUixoq7TAqVecULX+zWJmKYil6HxcdTAwMDJTOXuBbymI4snpVaFaXpOFfMe0hJJcdTAwMGavo/mAYfTBKbQyXHLsXHUwMDBlc1olXHUwMDA33CS/W/CKk2H19+HD8VaxNny61cfZXHUwMDA3XHUwMDFjo9yxXHJcdTAwMDGRlaKgkyArRc5KwHaRkZQz2yEruoL443VcdTAwMDTckUrjrZSgllx1MDAwNC8ojtLSIahcdTAwMWHAViza1FDYhbd1P4JS9Un1xO9cdTAwMTZcdTAwMTnAQ63XaXZPxufDrd7hxOvfbN1uwHAmMHDMOoTrNnAsevlcdTAwMTm+f4bq3s953s2uL5zNzCOOKrtcblNaJ1sw6m9cdTAwMWH9si2KY2mq4JLbXHUwMDFlXFwxjVx1MDAwMz9u4ZD3gkFage6d7XtrwohbsFx1MDAxYjGSU76pprdcbi08QFxuqfyYhTtqNPBcdTAwMTZertDvr8nIvWMk5o2cf0CxgItcZlPHrPcktlhcdTAwMGUnODng4suGslxuuPgoNVx1MDAxOOlQpjkwNHJcZmj0xoNcdTAwMWa2cMI4Qlx1MDAwMtWMglx1MDAxMMS3lcms+lx1MDAxN/Artlx1MDAwZja+XHUwMDFjNILEt4nxq4VDWmKM8u9/t/ny32kl1qdmwH07XHUwMDAyW5uBjIGBQPbg22w791x1MDAxNm1cdTAwMGU9ayCOXHUwMDFjXHUwMDFj9lx1MDAxN2rqXHUwMDEyKU/2yIdFaXa9b/6fq1QpOFx1MDAxY1x0mqVIfMVXXGZ+XHUwMDE1lVx1MDAxMmzqYlx1MDAxM19cbi0r8lx1MDAxOS6RkM5cdTAwMGZslSpF452oltxwQySBXHUwMDA1pNlcdTAwMThHXCJVxtdCNFUkvOk5XHUwMDA1ylHvkU9dUZBcdTAwMWSVMl0/XHUwMDEwPNKqlKgx9I33XFzuXHUwMDFjXHUwMDFl7I1cdTAwMGZPTcn7sXc1zpuIMdiGzIZcdTAwMDMo5IHELvhIMIivpb2iRNdcdTAwMWUhoU2pvOJ3PleRfj86lSRdXHUwMDFizLNn96R2/LtQ+FxyrHz1fF2aPPZ/Zl6BoYRTXHUwMDA3XHUwMDEw+VxmtGaayGCPX+RCXHUwMDBl8nycXG6Fjlxu4Vl3+9FNXCLcsKyuLahcdTAwMTTLO/f7pe7hnm6S37v3vyrD2/3/Q3FtXHUwMDA0eCTgbEc+dHiTXHUwMDAzbvFkZlx1MDAxZnBA7fYy0lx1MDAxMIK0gc1tf860ckDaXHUwMDA0XHUwMDE1YkGZmI2kPuz1S+EgN9SKJV/2XHUwMDBiXHUwMDEydYQgm2lcdTAwMDVne9zIzfn8hXqn1c3tuMPmdc9cdTAwMWSsK/37jpVcYnfKXGJcdTAwMGVqOaJcdTAwMGVcdTAwMTBcdTAwMWTfNsLuXHUwMDFiLlI0l41cdTAwMGY/ZrPoXHUwMDAyKFx1MDAwNYejPFx05LhcXCDNXHKgXHUwMDBlpkaQUPRcdTAwMWanPnUk6D6+zp44aN+QZFx1MDAxM4OemvT1u5j5/pQ6mihGKbN7p1D/Vld/Qm/cXHUwMDA2adn669NiXHKG3VRujTw9PkKWXHUwMDBiuP6SUlx1MDAwMVx1MDAxYXBGhVx1MDAwMH9R2Vx1MDAwYkHmXHUwMDBlQUfN1lx1MDAxZmrkmFKF7XtcItZcdTAwMWWfmFxusnYk6lxmaatcdTAwMDLbM0/M/OC/XGJpR1x1MDAxYiaEXHUwMDExSFx1MDAxOFx1MDAwNSVIXHUwMDFm/Vx1MDAwZmgry1x1MDAxY8LRvOGkS2Vjyu9eLlx1MDAxMlx1MDAxNi83m1x1MDAwN0RKJyBaMUY7XHUwMDAwgEKOPlx1MDAwN0nRXHUwMDE0IZ6gZVUxoupDpUgpn64smqubR9FFdClbXHUwMDFkRFx1MDAxMFk0OoLxYc2IL1koqjizQVx1MDAwMLtcdTAwMTPEXHUwMDAyzYg+XHUwMDAySpTt2kxcdTAwMDHVOF2Q9zPTmplUjfFWrlx1MDAxYXGmfFx1MDAwMdvVq8Z4XHUwMDEykZtcdTAwMGZhXHUwMDE4gzzTbn6ihViwrZGDUi60tPsqXHUwMDFhimRQh1x1MDAxZX612pE4jKAvKYWtO+VcXPlcdTAwMGJP38YkXGJcdTAwMTN2XHQns1pBLFiq9JW0JUVcdTAwMTOF9kmi3Sbo5JBgz21pXHUwMDFjo40trES8XHUwMDAyXHUwMDE1+r3LRUNler0wSqLU5bc/t/ju9vsntkvw2+tF1LTqc1x1MDAxNPr7Q8t73Fxuw/pvjelhuen09VhF501x9d9v//1fLro8uiJ9<!-- payload-end -->
  <defs>
    <style class="style-fonts">
      @font-face {
        font-family: "Virgil";
        src: url("https://unpkg.com/@telesoho/excalidraw@0.14.2-0d33413/dist/excalidraw-assets/Virgil.woff2");
      }
      @font-face {
        font-family: "Yozai";
        src: url("https://unpkg.com/@telesoho/excalidraw@0.14.2-0d33413/dist/excalidraw-assets/Yozai-Regular.ttf");
      }
      @font-face {
        font-family: "Cascadia";
        src: url("https://unpkg.com/@telesoho/excalidraw@0.14.2-0d33413/dist/excalidraw-assets/Cascadia.woff2");
      }
    </style>
  </defs>
  <rect x="0" y="0" width="2940.5824768832235" height="1738.8893721111226" fill="#ffffff"></rect><g stroke-linecap="round" transform="translate(810.6782058785309 775.2893721111227) rotate(0 90 70)"><path d="M32 0 M32 0 C65.28 2.49, 102.65 -0.94, 148 0 M32 0 C78.14 -0.09, 124.38 0.42, 148 0 M148 0 C168.78 0.13, 179.48 9.02, 180 32 M148 0 C169.72 -1.55, 182.2 11.17, 180 32 M180 32 C181.66 60.28, 181.55 88.45, 180 108 M180 32 C178.97 58.71, 180.33 85.87, 180 108 M180 108 C179.11 127.41, 169.29 140.87, 148 140 M180 108 C182.16 128.98, 171.24 138.82, 148 140 M148 140 C109.26 142.24, 73.05 140.88, 32 140 M148 140 C109.7 139.7, 71.68 140.77, 32 140 M32 140 C12.04 140.8, -1.01 130.2, 0 108 M32 140 C10.34 140.47, -0.41 129.94, 0 108 M0 108 C-0.92 91.2, -1.73 74.18, 0 32 M0 108 C-0.46 82.69, -0.28 57.78, 0 32 M0 32 C0.62 11.9, 12.06 -0.74, 32 0 M0 32 C-0.87 12.52, 10.57 1.92, 32 0" stroke="#1e1e1e" stroke-width="2" fill="none"></path></g><g transform="translate(846.2397293160309 832.7893721111227) rotate(0 54.4384765625 12)"><text x="54.4384765625" y="0" font-family="Segoe UI Emoji" font-size="20px" fill="#1e1e1e" text-anchor="middle" style="white-space: pre;" direction="ltr" dominant-baseline="text-before-edge">Project-Ms-B</text></g><g stroke-linecap="round" transform="translate(1393.4109433894541 515.2893721111227) rotate(0 105.83333333333334 209.77727395012283)"><path d="M32 0 M32 0 C65.45 1.16, 98.93 1.34, 179.67 0 M32 0 C80.08 -0.92, 128.85 -0.77, 179.67 0 M179.67 0 C202.91 0.44, 213 10.39, 211.67 32 M179.67 0 C199.03 2.03, 212.16 12.57, 211.67 32 M211.67 32 C213.05 151.12, 213.04 272.77, 211.67 387.55 M211.67 32 C210.64 169.26, 211.25 305.86, 211.67 387.55 M211.67 387.55 C213.33 407.86, 201.46 418.2, 179.67 419.55 M211.67 387.55 C212.96 407.44, 202.82 419.59, 179.67 419.55 M179.67 419.55 C134.3 420.64, 86.41 421.35, 32 419.55 M179.67 419.55 C128.68 420.58, 78.56 420.35, 32 419.55 M32 419.55 C10.31 420.09, -1.69 409.59, 0 387.55 M32 419.55 C10.77 418.8, -0.5 407.2, 0 387.55 M0 387.55 C-0.3 300.27, -1.27 213.22, 0 32 M0 387.55 C-0.26 303.23, -0.95 219.89, 0 32 M0 32 C-0.09 12.34, 10.39 -1.94, 32 0 M0 32 C-1.19 9.82, 9.78 0.26, 32 0" stroke="#1e1e1e" stroke-width="2" fill="none"></path></g><g transform="translate(1449.2442767227874 710.3836025510508) rotate(0 46.591796875 12)"><text x="0" y="0" font-family="Segoe UI Emoji" font-size="20px" fill="#1e1e1e" text-anchor="start" style="white-space: pre;" direction="ltr" dominant-baseline="text-before-edge">Trigger MS</text></g><g stroke-linecap="round"><g transform="translate(1390.678205878531 838.7901772459336) rotate(0 -199.5 3.704077861174426)"><path d="M0.07 -0.29 C-123.61 1.84, -246.12 5.01, -398.75 8.16 M0.12 0.47 C-114.08 4.4, -228.86 6.36, -399.35 7.52" stroke="#1e1e1e" stroke-width="1" fill="none"></path></g><g transform="translate(1390.678205878531 838.7901772459336) rotate(0 -199.5 3.704077861174426)"><path d="M-371.13 -3.52 C-381.51 0.49, -389.85 5.31, -398.91 8.85 M-371.04 -2.17 C-379.02 0.75, -387.97 3.49, -399.97 7.73" stroke="#1e1e1e" stroke-width="1" fill="none"></path></g><g transform="translate(1390.678205878531 838.7901772459336) rotate(0 -199.5 3.704077861174426)"><path d="M-370.94 17 C-381.44 14.7, -389.84 13.21, -398.91 8.85 M-370.85 18.35 C-378.71 15.4, -387.72 12.26, -399.97 7.73" stroke="#1e1e1e" stroke-width="1" fill="none"></path></g></g><mask></mask><g stroke-linecap="round" transform="translate(1688.0378716280957 359.7941686085287) rotate(0 148.21428571428578 53.928571428571445)"><path d="M26.96 0 M26.96 0 C92.3 1.25, 160.24 0.77, 269.46 0 M26.96 0 C96.59 -1.09, 166.16 -1.37, 269.46 0 M269.46 0 C286.37 0.42, 295.19 9.39, 296.43 26.96 M269.46 0 C289.13 1.96, 295.4 6.77, 296.43 26.96 M296.43 26.96 C296.35 44.7, 295.63 59.57, 296.43 80.89 M296.43 26.96 C297.53 39.5, 296.85 52.33, 296.43 80.89 M296.43 80.89 C297.7 99.47, 287.58 106.56, 269.46 107.86 M296.43 80.89 C297.41 99.83, 289.02 108.78, 269.46 107.86 M269.46 107.86 C209.29 107.28, 148.87 106.17, 26.96 107.86 M269.46 107.86 C188.08 106.59, 106.61 107.42, 26.96 107.86 M26.96 107.86 C10.23 108.32, 0.02 97.83, 0 80.89 M26.96 107.86 C9.44 106.4, 0.71 100.28, 0 80.89 M0 80.89 C1.81 60.88, 1.87 40.77, 0 26.96 M0 80.89 C-0.11 70.05, 0.7 58.5, 0 26.96 M0 26.96 C0.2 10.42, 8.16 1.62, 26.96 0 M0 26.96 C-1.81 7.51, 7.7 1.65, 26.96 0" stroke="#1e1e1e" stroke-width="1" fill="none"></path></g><g transform="translate(1775.4664430566672 402.5084543228145) rotate(0 67.2021484375 12)"><text x="0" y="0" font-family="Segoe UI Emoji" font-size="20px" fill="#1e1e1e" text-anchor="start" style="white-space: pre;" direction="ltr" dominant-baseline="text-before-edge">tbl_sources_data</text></g><g stroke-linecap="round"><g transform="translate(1595.3013210266233 514.2893721111227) rotate(0 45.86827530073617 -30.061405376703306)"><path d="M-0.27 -1.72 C37.93 -23.97, 74.11 -47.44, 92.71 -61.19 M0.73 0.85 C29.38 -20.45, 59.25 -38.35, 92.67 -60.28" stroke="#1e1e1e" stroke-width="1" fill="none"></path></g><g transform="translate(1595.3013210266233 514.2893721111227) rotate(0 45.86827530073617 -30.061405376703306)"><path d="M74.29 -38.08 C83.44 -45.52, 90.49 -54.66, 93.65 -61.35 M75.29 -35.51 C80.08 -45.04, 86.32 -51.32, 93.61 -60.43" stroke="#1e1e1e" stroke-width="1" fill="none"></path></g><g transform="translate(1595.3013210266233 514.2893721111227) rotate(0 45.86827530073617 -30.061405376703306)"><path d="M63.15 -55.32 C76.75 -56.01, 88.21 -58.33, 93.65 -61.35 M64.16 -52.75 C72.41 -56.77, 82.23 -57.51, 93.61 -60.43" stroke="#1e1e1e" stroke-width="1" fill="none"></path></g></g><mask></mask><g stroke-linecap="round" transform="translate(2076.6225810680544 70) rotate(0 201.78571428571433 45)"><path d="M22.5 0 M22.5 0 C155.04 2.23, 286.39 2.43, 381.07 0 M22.5 0 C147.18 -0.35, 273.11 0.06, 381.07 0 M381.07 0 C395.18 -1.93, 403.53 8.37, 403.57 22.5 M381.07 0 C398.23 -0.36, 405.48 6.32, 403.57 22.5 M403.57 22.5 C402.01 38.63, 403.29 51.81, 403.57 67.5 M403.57 22.5 C403.93 36.74, 404.28 52.69, 403.57 67.5 M403.57 67.5 C404.94 83.3, 395.06 90.87, 381.07 90 M403.57 67.5 C403.25 82.97, 395.66 90.61, 381.07 90 M381.07 90 C303.45 89.82, 225.73 89.41, 22.5 90 M381.07 90 C264.1 90.2, 147.25 90.12, 22.5 90 M22.5 90 C8.12 91.23, 1.39 81.76, 0 67.5 M22.5 90 C6.63 91.85, -0.1 84.42, 0 67.5 M0 67.5 C-0.3 53.84, 0.66 42.56, 0 22.5 M0 67.5 C-0.46 57.02, -0.83 44.27, 0 22.5 M0 22.5 C-1.12 8.94, 6.5 0.76, 22.5 0 M0 22.5 C0.25 5.79, 7.85 -0.02, 22.5 0" stroke="#1e1e1e" stroke-width="1" fill="none"></path></g><g transform="translate(2255.073334416269 103) rotate(0 23.3349609375 12)"><text x="23.3349609375" y="0" font-family="Segoe UI Emoji" font-size="20px" fill="#1e1e1e" text-anchor="middle" style="white-space: pre;" direction="ltr" dominant-baseline="text-before-edge">DHM</text></g><g transform="translate(2200.1940096394833 10) rotate(0 53.037109375 12)"><text x="0" y="0" font-family="Segoe UI Emoji" font-size="20px" fill="#1e1e1e" text-anchor="start" style="white-space: pre;" direction="ltr" dominant-baseline="text-before-edge">Data Sources</text></g><g stroke-linecap="round"><g transform="translate(2215.908295353769 70.71428571428578) rotate(0 1.7857142857143344 43.571428571428555)"><path d="M-0.64 0.25 C-0.24 14.72, 1.98 72.73, 2.83 87.39 M1.22 -0.66 C1.97 13.37, 4.66 70.89, 5.15 85.39" stroke="#1e1e1e" stroke-width="1" fill="none"></path></g></g><mask></mask><g stroke-linecap="round"><g transform="translate(2350.1940096394833 75.71428571428578) rotate(0 3.571428571428555 41.78571428571428)"><path d="M-0.74 0.24 C0.7 14.3, 6.8 70.9, 8.02 84.59 M1.07 -0.67 C2.49 13.04, 6.79 69.04, 7.54 83.01" stroke="#1e1e1e" stroke-width="1" fill="none"></path></g></g><mask></mask><g transform="translate(2100.908295353769 107.85714285714289) rotate(0 26.66015625 12)"><text x="0" y="0" font-family="Segoe UI Emoji" font-size="20px" fill="#1e1e1e" text-anchor="start" style="white-space: pre;" direction="ltr" dominant-baseline="text-before-edge">Glofas</text></g><g stroke-linecap="round"><g transform="translate(2073.7654382109117 110) rotate(0 -111.78571428571433 120.00000000000006)"><path d="M-1.32 -0.03 C-81.45 90.19, -165.72 179.63, -224.28 240.32 M0.54 0.01 C-50.92 54.99, -102.5 110.74, -223.52 239.55" stroke="#1e1e1e" stroke-width="1" fill="none"></path></g><g transform="translate(2073.7654382109117 110) rotate(0 -111.78571428571433 120.00000000000006)"><path d="M-213.65 211.93 C-215.02 224.09, -220.61 234.17, -224.55 240.02 M-210.93 211.99 C-214.2 218.61, -216.41 225.01, -223.45 238.91" stroke="#1e1e1e" stroke-width="1" fill="none"></path></g><g transform="translate(2073.7654382109117 110) rotate(0 -111.78571428571433 120.00000000000006)"><path d="M-198.68 225.97 C-205.76 232.82, -216.93 237.66, -224.55 240.02 M-195.96 226.02 C-202.78 229.29, -208.48 232.44, -223.45 238.91" stroke="#1e1e1e" stroke-width="1" fill="none"></path></g></g><mask></mask><g stroke-linecap="round"><g transform="translate(2258.7654382109117 162.8571428571429) rotate(0 -136.64949757712225 107.46913611534097)"><path d="M0.57 1.23 C-71.36 55.95, -141.64 110.07, -274.18 215.68 M0.07 0.2 C-63.29 51.2, -128.48 101.56, -273.02 215.21" stroke="#1e1e1e" stroke-width="1" fill="none"></path></g><g transform="translate(2258.7654382109117 162.8571428571429) rotate(0 -136.64949757712225 107.46913611534097)"><path d="M-256.31 191.61 C-261.78 197.9, -266.54 203.21, -274.37 216.34 M-257.06 190.04 C-260.1 196.08, -264.42 201.17, -272.59 215.63" stroke="#1e1e1e" stroke-width="1" fill="none"></path></g><g transform="translate(2258.7654382109117 162.8571428571429) rotate(0 -136.64949757712225 107.46913611534097)"><path d="M-243.64 207.75 C-252.19 209.92, -260.19 211.1, -274.37 216.34 M-244.39 206.19 C-250.56 208.4, -257.89 209.66, -272.59 215.63" stroke="#1e1e1e" stroke-width="1" fill="none"></path></g></g><mask></mask><g transform="translate(1753.298314688329 203.5902203835508) rotate(316.25606569286765 147.71087646484375 12)"><text x="0" y="0" font-family="Segoe UI Emoji" font-size="20.265451719550835px" fill="#1e1e1e" text-anchor="start" style="white-space: pre;" direction="ltr" dominant-baseline="text-before-edge">Feed data via APIs through CronJob</text></g><g stroke-linecap="round" transform="translate(1718.7654382109115 819.724426269531) rotate(0 167.14285714285722 62.14285714285717)"><path d="M31.07 0 M31.07 0 C137.43 -1.4, 244.34 -0.88, 303.21 0 M31.07 0 C95.71 0.21, 160.66 0.21, 303.21 0 M303.21 0 C324.07 -1.3, 335.14 11.19, 334.29 31.07 M303.21 0 C325.51 0.92, 333.13 11.36, 334.29 31.07 M334.29 31.07 C334.94 47.15, 335.11 66.7, 334.29 93.21 M334.29 31.07 C333.61 47.95, 334.77 64.53, 334.29 93.21 M334.29 93.21 C334.3 112.89, 324.32 123.02, 303.21 124.29 M334.29 93.21 C335 115.34, 325.53 123.44, 303.21 124.29 M303.21 124.29 C233.18 123.98, 159.03 123.39, 31.07 124.29 M303.21 124.29 C231.96 124.14, 160.14 125.08, 31.07 124.29 M31.07 124.29 C9.52 125.91, -1.57 112.64, 0 93.21 M31.07 124.29 C9.07 125.94, -1.15 114.8, 0 93.21 M0 93.21 C0.45 72.64, -0.95 52.65, 0 31.07 M0 93.21 C0.25 74.13, -1.34 52.65, 0 31.07 M0 31.07 C0.4 10.29, 9.05 -0.48, 31.07 0 M0 31.07 C-1.21 12.13, 10.12 -1.44, 31.07 0" stroke="#1e1e1e" stroke-width="1" fill="none"></path></g><g transform="translate(1821.6225810680546 871.8672834123881) rotate(0 46.103515625 12)"><text x="0" y="0" font-family="Segoe UI Emoji" font-size="20px" fill="#1e1e1e" text-anchor="start" style="white-space: pre;" direction="ltr" dominant-baseline="text-before-edge">tbl_triggers</text></g><g stroke-linecap="round"><g transform="translate(1608.051152496626 818.5755144906191) rotate(0 54.285714285714334 17.956643362651675)"><path d="M-1.26 1.59 C34.87 11.22, 70.55 23.87, 109.18 36.06 M0.69 0.4 C25.17 8.42, 51.06 16.64, 108.39 36.18" stroke="#1e1e1e" stroke-width="1" fill="none"></path></g><g transform="translate(1608.051152496626 818.5755144906191) rotate(0 54.285714285714334 17.956643362651675)"><path d="M77.14 38.47 C88.13 36.71, 98.41 37.53, 109 36.32 M79.09 37.28 C84.94 37.03, 92.36 36.63, 108.21 36.44" stroke="#1e1e1e" stroke-width="1" fill="none"></path></g><g transform="translate(1608.051152496626 818.5755144906191) rotate(0 54.285714285714334 17.956643362651675)"><path d="M83.71 19.03 C92.44 23.59, 100.6 30.69, 109 36.32 M85.65 17.84 C90.05 22.18, 95.92 26.36, 108.21 36.44" stroke="#1e1e1e" stroke-width="1" fill="none"></path></g></g><mask></mask><g stroke-linecap="round" transform="translate(1774.3187287142773 591.8672834123881) rotate(0 138.57142857142856 46.428571428571416)"><path d="M23.21 0 M23.21 0 C105.46 -1.36, 188.18 -0.47, 253.93 0 M23.21 0 C99.78 1.63, 176.2 1.61, 253.93 0 M253.93 0 C268.4 0.87, 276.86 8.15, 277.14 23.21 M253.93 0 C268.99 0.61, 275.2 8.54, 277.14 23.21 M277.14 23.21 C275.52 36.25, 277.52 52.71, 277.14 69.64 M277.14 23.21 C277.34 37.58, 277.46 53.83, 277.14 69.64 M277.14 69.64 C278.53 84.38, 268.65 94.47, 253.93 92.86 M277.14 69.64 C277.04 87.04, 269.09 90.63, 253.93 92.86 M253.93 92.86 C196.88 92.81, 138.62 92.27, 23.21 92.86 M253.93 92.86 C167.5 93.9, 81.93 95.05, 23.21 92.86 M23.21 92.86 C6.73 93.62, 0.22 83.63, 0 69.64 M23.21 92.86 C8.09 92.84, -1.45 83.49, 0 69.64 M0 69.64 C0.98 61.51, 1.85 48.86, 0 23.21 M0 69.64 C-0.74 57.48, -0.62 46.57, 0 23.21 M0 23.21 C-0.21 6.49, 9.67 1.61, 23.21 0 M0 23.21 C1.78 6.56, 7.32 -1.54, 23.21 0" stroke="#1e1e1e" stroke-width="1" fill="none"></path></g><g transform="translate(1855.033014428563 634.0101405552452) rotate(0 51.6552734375 12)"><text x="0" y="0" font-family="Segoe UI Emoji" font-size="20px" fill="#1e1e1e" text-anchor="start" style="white-space: pre;" direction="ltr" dominant-baseline="text-before-edge">tbl_activities</text></g><g stroke-linecap="round"><g transform="translate(1606.0776100561206 643.833253263841) rotate(0 82.33484504336394 -2.238038099681887)"><path d="M0.61 0.14 C49.96 -1.58, 103.37 -2.46, 165.47 -5.48 M-0.18 0.27 C55.71 -1.53, 113.15 -3.74, 164.45 -5.21" stroke="#1e1e1e" stroke-width="1" fill="none"></path></g><g transform="translate(1606.0776100561206 643.833253263841) rotate(0 82.33484504336394 -2.238038099681887)"><path d="M137.2 6.07 C143.94 3.14, 154.75 0.19, 165.26 -6.22 M136.42 6.19 C145.33 2.39, 155.79 -2.11, 164.24 -5.95" stroke="#1e1e1e" stroke-width="1" fill="none"></path></g><g transform="translate(1606.0776100561206 643.833253263841) rotate(0 82.33484504336394 -2.238038099681887)"><path d="M136.56 -14.44 C143.56 -10.99, 154.57 -7.56, 165.26 -6.22 M135.78 -14.32 C144.88 -11.07, 155.56 -8.53, 164.24 -5.95" stroke="#1e1e1e" stroke-width="1" fill="none"></path></g></g><mask></mask><g stroke-linecap="round" transform="translate(1711.882679389152 1104.7103561673841) rotate(0 160.35714285714278 40.71428571428572)"><path d="M20.36 0 M20.36 0 C121.15 0.5, 224.57 0.9, 300.36 0 M20.36 0 C115.49 -0.78, 210.71 -0.73, 300.36 0 M300.36 0 C312.23 0.7, 320.8 6.13, 320.71 20.36 M300.36 0 C313.43 -1.69, 319.46 7.39, 320.71 20.36 M320.71 20.36 C319.77 35.49, 319.54 50.46, 320.71 61.07 M320.71 20.36 C320.62 35.88, 320.95 50.63, 320.71 61.07 M320.71 61.07 C320.44 72.7, 312.89 80.69, 300.36 81.43 M320.71 61.07 C319.82 74.9, 314.89 80.3, 300.36 81.43 M300.36 81.43 C214.79 79.33, 125.75 79.68, 20.36 81.43 M300.36 81.43 C196.35 81.68, 92.29 82.24, 20.36 81.43 M20.36 81.43 C5.53 80.02, -1.92 75.1, 0 61.07 M20.36 81.43 C8.31 82.68, 1.53 76.89, 0 61.07 M0 61.07 C0.11 51.33, -0.3 43.15, 0 20.36 M0 61.07 C1.01 46.52, 0.82 29.84, 0 20.36 M0 20.36 C-0.37 5.45, 6.19 0.08, 20.36 0 M0 20.36 C-0.42 5.52, 6.89 -0.44, 20.36 0" stroke="#1e1e1e" stroke-width="1" fill="none"></path></g><g transform="translate(1788.3112508177232 1136.1389275959555) rotate(0 42.216796875 12)"><text x="0" y="0" font-family="Segoe UI Emoji" font-size="20px" fill="#1e1e1e" text-anchor="start" style="white-space: pre;" direction="ltr" dominant-baseline="text-before-edge">tbl_phases</text></g><g stroke-linecap="round"><g transform="translate(1587.589351420782 935.8439200113684) rotate(0 61.75797090560502 84.1187062488757)"><path d="M0.71 -0.89 C43.73 56.66, 85.66 114.26, 123.99 166.74 M-0.19 -0.65 C40.94 56.92, 83.33 113.23, 123.52 167.78" stroke="#1e1e1e" stroke-width="1" fill="none"></path></g><g transform="translate(1587.589351420782 935.8439200113684) rotate(0 61.75797090560502 84.1187062488757)"><path d="M99.31 150.21 C108.02 156.44, 116.13 162.04, 124.05 166.08 M98.29 150.48 C106.35 157.11, 115.89 162.62, 123.53 167.25" stroke="#1e1e1e" stroke-width="1" fill="none"></path></g><g transform="translate(1587.589351420782 935.8439200113684) rotate(0 61.75797090560502 84.1187062488757)"><path d="M115.8 138 C118.91 148.53, 121.37 158.31, 124.05 166.08 M114.78 138.28 C117.32 148.93, 121.34 158.53, 123.53 167.25" stroke="#1e1e1e" stroke-width="1" fill="none"></path></g></g><mask></mask><g transform="translate(1682.7225833568734 1209.662550926208) rotate(0 199.1064453125 12)"><text x="0" y="0" font-family="Segoe UI Emoji" font-size="20px" fill="#1e1e1e" text-anchor="start" style="white-space: pre;" direction="ltr" dominant-baseline="text-before-edge">Defines no of triggers to be executed as per Phase</text></g><g stroke-linecap="round" transform="translate(2359.8786507963614 592.8700733184794) rotate(0 137.5 181.07142857142858)"><path d="M32 0 M32 0 C85.02 -0.05, 137.78 -1.23, 243 0 M243 0 C265.03 0.09, 274.35 10.23, 275 32 M275 32 C274.72 99.88, 273.82 166.31, 275 330.14 M275 330.14 C275.39 350.21, 264.95 363.37, 243 362.14 M243 362.14 C166.45 361.36, 88.53 361.2, 32 362.14 M32 362.14 C8.73 361.1, -0.74 350.7, 0 330.14 M0 330.14 C-0.77 238.41, -1.53 145.75, 0 32 M0 32 C-1.57 9.38, 9.55 1.44, 32 0" stroke="#1e1e1e" stroke-width="1.5" fill="none" stroke-dasharray="1.5 7"></path></g><g transform="translate(2391.8786507963614 637.1557876041936) rotate(0 82.6708984375 12)"><text x="0" y="0" font-family="Segoe UI Emoji" font-size="20px" fill="#1e1e1e" text-anchor="start" style="white-space: pre;" direction="ltr" dominant-baseline="text-before-edge">Trigger 1 - Executed</text></g><g transform="translate(2392.261597355722 677.3700733184794) rotate(0 82.6708984375 12)"><text x="0" y="0" font-family="Segoe UI Emoji" font-size="20px" fill="#1e1e1e" text-anchor="start" style="white-space: pre;" direction="ltr" dominant-baseline="text-before-edge">Trigger 2 - Executed</text></g><g transform="translate(2395.1187402128658 727.2272161756222) rotate(0 97.6708984375 12)"><text x="0" y="0" font-family="Segoe UI Emoji" font-size="20px" fill="#1e1e1e" text-anchor="start" style="white-space: pre;" direction="ltr" dominant-baseline="text-before-edge">Trigger 3 - NotExecuted</text></g><g transform="translate(2402.5929365106476 782.1557876041936) rotate(0 39.3603515625 12)"><text x="0" y="0" font-family="Segoe UI Emoji" font-size="20px" fill="#1e1e1e" text-anchor="start" style="white-space: pre;" direction="ltr" dominant-baseline="text-before-edge">Trigger N</text></g><g stroke-linecap="round"><g transform="translate(2048.8068072403657 823.9780609948264) rotate(0 155.03592177799783 -41.248089280384704)"><path d="M0.37 0.87 C87.03 -21.77, 172.27 -44.46, 309.18 -82.06" stroke="#1e1e1e" stroke-width="1.5" fill="none" stroke-dasharray="1.5 7"></path></g><g transform="translate(2048.8068072403657 823.9780609948264) rotate(0 155.03592177799783 -41.248089280384704)"><path d="M285.22 -63.5 C292.1 -69.41, 297.41 -73.86, 307.91 -81.45" stroke="#1e1e1e" stroke-width="1.5" fill="none" stroke-dasharray="1.5 5"></path></g><g transform="translate(2048.8068072403657 823.9780609948264) rotate(0 155.03592177799783 -41.248089280384704)"><path d="M279.81 -83.3 C288.05 -83.67, 294.87 -82.6, 307.91 -81.45" stroke="#1e1e1e" stroke-width="1.5" fill="none" stroke-dasharray="1.5 5"></path></g></g><mask></mask><g stroke-linecap="round"><g transform="translate(2358.8786507963614 947.7130392838413) rotate(0 -165.39306463514072 84.27003927498708)"><path d="M0.28 0.01 C-81.58 42.88, -162.93 84.4, -330.03 169.39" stroke="#1e1e1e" stroke-width="1.5" fill="none" stroke-dasharray="1.5 7"></path></g><g transform="translate(2358.8786507963614 947.7130392838413) rotate(0 -165.39306463514072 84.27003927498708)"><path d="M-309.1 147.48 C-315.57 153.37, -320.83 158.98, -328.8 170.79" stroke="#1e1e1e" stroke-width="1.5" fill="none" stroke-dasharray="1.5 5"></path></g><g transform="translate(2358.8786507963614 947.7130392838413) rotate(0 -165.39306463514072 84.27003927498708)"><path d="M-299.79 165.76 C-308.6 167.22, -316.13 168.34, -328.8 170.79" stroke="#1e1e1e" stroke-width="1.5" fill="none" stroke-dasharray="1.5 5"></path></g></g><mask></mask><g transform="translate(2214.8068072403657 1039.824546405244) rotate(0 182.4609375 12)"><text x="0" y="0" font-family="Segoe UI Emoji" font-size="20px" fill="#1e1e1e" text-anchor="start" style="white-space: pre;" direction="ltr" dominant-baseline="text-before-edge">If 2/3 statments triggered Jump to Next phase</text></g><g stroke-linecap="round"><g transform="translate(2373.0925215260804 596.0568189620941) rotate(0 -195.71428571428567 -79.64285714285717)"><path d="M-0.67 0.33 C-116.66 -46.77, -235.45 -95.82, -390.58 -159.33" stroke="#1e1e1e" stroke-width="1.5" fill="none" stroke-dasharray="1.5 7"></path></g><g transform="translate(2373.0925215260804 596.0568189620941) rotate(0 -195.71428571428567 -79.64285714285717)"><path d="M-361.87 -157.51 C-368.38 -157.04, -379.37 -159.55, -388.96 -159.42" stroke="#1e1e1e" stroke-width="1.5" fill="none" stroke-dasharray="1.5 5"></path></g><g transform="translate(2373.0925215260804 596.0568189620941) rotate(0 -195.71428571428567 -79.64285714285717)"><path d="M-369.65 -138.52 C-373.73 -143.78, -382.37 -152, -388.96 -159.42" stroke="#1e1e1e" stroke-width="1.5" fill="none" stroke-dasharray="1.5 5"></path></g></g><mask></mask><g transform="translate(2141.9496643832235 477.48539039066554) rotate(0 394.31640625 12)"><text x="0" y="0" font-family="Segoe UI Emoji" font-size="20px" fill="#1e1e1e" text-anchor="start" style="white-space: pre;" direction="ltr" dominant-baseline="text-before-edge">Checks if trigger statement satisfies condition set and mark as triggered. Eg: water level reached N</text></g><g transform="translate(830.6782058785309 1695.2893721111227) rotate(0 242.5322265625 16.799999999999955)"><text x="0" y="0" font-family="Segoe UI Emoji" font-size="28px" fill="#1e1e1e" text-anchor="start" style="white-space: pre;" direction="ltr" dominant-baseline="text-before-edge">Fig: [Rahat Trigger System Flow Diagram]</text></g><g transform="translate(1810.8195052095286 780.2271062987161) rotate(0 101.0966796875 16.80000000000001)"><text x="0" y="0" font-family="Segoe UI Emoji" font-size="28px" fill="#1e1e1e" text-anchor="start" style="white-space: pre;" direction="ltr" dominant-baseline="text-before-edge">Add location field</text></g><g transform="translate(1788.3195052095286 1036.477106298716) rotate(0 101.0966796875 33.60000000000002)"><text x="0" y="0" font-family="Segoe UI Emoji" font-size="28px" fill="#1e1e1e" text-anchor="start" style="white-space: pre;" direction="ltr" dominant-baseline="text-before-edge">Add location field</text><text x="0" y="33.6" font-family="Segoe UI Emoji" font-size="28px" fill="#1e1e1e" text-anchor="start" style="white-space: pre;" direction="ltr" dominant-baseline="text-before-edge"></text></g><g stroke-linecap="round" transform="translate(810.6782058785309 475.2893721111227) rotate(0 90 70)"><path d="M32 0 M32 0 C64.48 -0.17, 98.67 1.44, 148 0 M32 0 C60.69 -0.02, 89.43 -1.48, 148 0 M148 0 C168.21 1.44, 179 11.43, 180 32 M148 0 C169.58 -1.71, 180.35 10.65, 180 32 M180 32 C179.92 51.35, 180.55 69.38, 180 108 M180 32 C179.5 62.2, 178.64 92.23, 180 108 M180 108 C178.95 130.88, 169.13 138.75, 148 140 M180 108 C182.23 131.19, 171.11 138.83, 148 140 M148 140 C115.41 139.29, 81.55 139.74, 32 140 M148 140 C116.26 140.54, 82.58 140.24, 32 140 M32 140 C12.2 140.6, 1.03 129.47, 0 108 M32 140 C11.05 141.83, 0.44 130.44, 0 108 M0 108 C-0.71 90.58, -1.94 75.35, 0 32 M0 108 C1 87.69, -0.29 66.17, 0 32 M0 32 C-1.67 12.11, 9.02 -1.72, 32 0 M0 32 C1.28 8.57, 9.16 -0.1, 32 0" stroke="#1e1e1e" stroke-width="2" fill="none"></path></g><g transform="translate(843.1879715035309 532.7893721111227) rotate(0 57.490234375 12)"><text x="57.490234375" y="0" font-family="Segoe UI Emoji" font-size="20px" fill="#1e1e1e" text-anchor="middle" style="white-space: pre;" direction="ltr" dominant-baseline="text-before-edge">Project -Ms-A</text></g><g stroke-linecap="round"><g transform="translate(991.6782058785309 538.3098863463856) rotate(0 199.73536281678827 5.458957959818946)"><path d="M0.5 -0.59 C67.18 1.35, 333.18 9.7, 399.59 11.78 M-0.69 1.72 C65.88 3.31, 332.27 8.72, 398.71 10.11" stroke="#000000" stroke-width="1" fill="none"></path></g><g transform="translate(991.6782058785309 538.3098863463856) rotate(0 199.73536281678827 5.458957959818946)"><path d="M28.02 -9.77 C23 -8.24, 15.74 -6.52, -0.79 -1.71 M29.11 -10.72 C18.51 -6.39, 7.14 -3.59, -0.46 -0.36" stroke="#000000" stroke-width="1" fill="none"></path></g><g transform="translate(991.6782058785309 538.3098863463856) rotate(0 199.73536281678827 5.458957959818946)"><path d="M27.38 10.74 C22.51 6.91, 15.41 3.27, -0.79 -1.71 M28.47 9.79 C18.22 6.5, 7.08 1.66, -0.46 -0.36" stroke="#000000" stroke-width="1" fill="none"></path></g><g transform="translate(991.6782058785309 538.3098863463856) rotate(0 199.73536281678827 5.458957959818946)"><path d="M369.33 19.99 C379.15 16.3, 386.76 13.04, 397.42 8.99 M370.42 19.04 C381.07 16.07, 390.84 11.77, 397.74 10.34" stroke="#000000" stroke-width="1" fill="none"></path></g><g transform="translate(991.6782058785309 538.3098863463856) rotate(0 199.73536281678827 5.458957959818946)"><path d="M369.75 -0.53 C379.49 1.15, 386.99 3.24, 397.42 8.99 M370.84 -1.48 C381.23 3.18, 390.85 6.51, 397.74 10.34" stroke="#000000" stroke-width="1" fill="none"></path></g></g><mask></mask><g stroke-linecap="round" transform="translate(350.40981588184263 615.0165369051142) rotate(0 100 100)"><path d="M32 0 M32 0 C65.85 -0.05, 103.71 0.07, 168 0 M32 0 C78.13 1, 123.33 0.31, 168 0 M168 0 C187.41 0.46, 201.32 11.76, 200 32 M168 0 C190.86 2.25, 197.87 9.67, 200 32 M200 32 C199.48 74.49, 201.5 118.88, 200 168 M200 32 C202.09 63.77, 201.13 95.89, 200 168 M200 168 C199.4 189.42, 188.97 198.9, 168 200 M200 168 C200.1 188.89, 188 200.26, 168 200 M168 200 C116.02 201.16, 64.22 200.66, 32 200 M168 200 C126.44 201.57, 83.53 201.13, 32 200 M32 200 C10.33 199.33, -1.92 187.43, 0 168 M32 200 C8.77 199.5, -1.21 188.49, 0 168 M0 168 C-0.18 117.34, 0.28 68.38, 0 32 M0 168 C-1.41 138.85, -1.62 109.29, 0 32 M0 32 C-0.5 10.96, 10.51 -1.34, 32 0 M0 32 C-0.03 10.15, 12 -0.41, 32 0" stroke="#000000" stroke-width="1" fill="none"></path></g><g transform="translate(389.58950338184263 701.5165369051142) rotate(0 60.8203125 12)"><text x="60.8203125" y="0" font-family="Segoe UI Emoji" font-size="20px" fill="#000000" text-anchor="middle" style="white-space: pre;" direction="ltr" dominant-baseline="text-before-edge">Rahat Platform</text></g><g stroke-linecap="round"><g transform="translate(551.4600948164115 676.1388854305997) rotate(0 420.69319077838276 -0.3216060367704898)"><path d="M-0.6 0.46 C139.76 0.06, 701.15 -1.35, 841.52 -1.54 M1.28 -0.35 C141.56 -0.7, 700.7 -0.64, 840.64 -0.47" stroke="#000000" stroke-width="1" fill="none"></path></g><g transform="translate(551.4600948164115 676.1388854305997) rotate(0 420.69319077838276 -0.3216060367704898)"><path d="M28.32 -9.66 C19.28 -7.19, 13.88 -6.23, -2.02 -1.47 M28.23 -8.9 C17.61 -6.82, 9.64 -3.08, -1.25 0.22" stroke="#000000" stroke-width="1" fill="none"></path></g><g transform="translate(551.4600948164115 676.1388854305997) rotate(0 420.69319077838276 -0.3216060367704898)"><path d="M28.38 10.87 C19.17 8.33, 13.76 4.28, -2.02 -1.47 M28.28 11.63 C17.51 7.08, 9.53 4.19, -1.25 0.22" stroke="#000000" stroke-width="1" fill="none"></path></g><g transform="translate(551.4600948164115 676.1388854305997) rotate(0 420.69319077838276 -0.3216060367704898)"><path d="M813.2 9.99 C817.76 7.73, 826.11 3.66, 839.22 -2.39 M813.11 10.76 C820.55 5.88, 830.78 2.98, 839.99 -0.71" stroke="#000000" stroke-width="1" fill="none"></path></g><g transform="translate(551.4600948164115 676.1388854305997) rotate(0 420.69319077838276 -0.3216060367704898)"><path d="M813.21 -10.53 C817.91 -7.79, 826.26 -6.85, 839.22 -2.39 M813.12 -9.77 C820.69 -8.01, 830.92 -4.29, 839.99 -0.71" stroke="#000000" stroke-width="1" fill="none"></path></g></g><mask></mask><g transform="translate(894.9511371572942 663.817279393829) rotate(0 77.2021484375 12)"><text x="77.2021484375" y="0" font-family="Segoe UI Emoji" font-size="20px" fill="#1e1e1e" text-anchor="middle" style="white-space: pre;" direction="ltr" dominant-baseline="text-before-edge">ProjectId - Payload</text></g><g stroke-linecap="round"><g transform="translate(551.1169226630292 734.9741957658853) rotate(0 420.52538854532173 -0.22084001126287944)"><path d="M0.13 -0.89 C140.44 -1.05, 701.21 -0.39, 841.24 -0.45 M-1.26 1.25 C138.96 1.26, 699.71 1.36, 840.39 1.08" stroke="#000000" stroke-width="1" fill="none"></path></g><g transform="translate(551.1169226630292 734.9741957658853) rotate(0 420.52538854532173 -0.22084001126287944)"><path d="M26.84 -10.83 C21.3 -9.81, 12.86 -7.91, 0.59 0.43 M27.4 -11.57 C18.6 -7.26, 7.75 -3.84, -0.39 -0.12" stroke="#000000" stroke-width="1" fill="none"></path></g><g transform="translate(551.1169226630292 734.9741957658853) rotate(0 420.52538854532173 -0.22084001126287944)"><path d="M26.83 9.69 C21.22 5.59, 12.78 2.36, 0.59 0.43 M27.39 8.95 C18.46 5.98, 7.61 2.13, -0.39 -0.12" stroke="#000000" stroke-width="1" fill="none"></path></g><g transform="translate(551.1169226630292 734.9741957658853) rotate(0 420.52538854532173 -0.22084001126287944)"><path d="M810.71 11.67 C819.19 7.51, 824.83 4.27, 840.84 2.4 M811.27 10.93 C822.33 7.41, 831.46 3.56, 839.86 1.85" stroke="#000000" stroke-width="1" fill="none"></path></g><g transform="translate(551.1169226630292 734.9741957658853) rotate(0 420.52538854532173 -0.22084001126287944)"><path d="M810.7 -8.85 C819.25 -7.89, 824.9 -6, 840.84 2.4 M811.26 -9.59 C822.45 -5.84, 831.6 -2.41, 839.86 1.85" stroke="#000000" stroke-width="1" fill="none"></path></g></g><mask></mask><g transform="translate(899.440162770851 722.7533557546224) rotate(0 72.2021484375 12)"><text x="72.2021484375" y="0" font-family="Segoe UI Emoji" font-size="20px" fill="#1e1e1e" text-anchor="middle" style="white-space: pre;" direction="ltr" dominant-baseline="text-before-edge">ProjectId-Payload</text></g><g stroke-linecap="round" transform="translate(230.6782058785309 695.2893721111227) rotate(0 60 30)"><path d="M15 0 M15 0 C42.96 -1.4, 69.55 -2.06, 105 0 M15 0 C44.72 0.49, 72.19 -0.92, 105 0 M105 0 C115.4 -0.06, 118.7 4.52, 120 15 M105 0 C113.79 1.78, 119.76 3.56, 120 15 M120 15 C119.22 26.54, 118.9 38.21, 120 45 M120 15 C119.99 23.94, 119.37 33.37, 120 45 M120 45 C121.68 55.81, 114.46 60.21, 105 60 M120 45 C121.76 55.69, 116.18 60.16, 105 60 M105 60 C77.47 58.25, 48.11 59.84, 15 60 M105 60 C80.19 58.93, 56.52 58.78, 15 60 M15 60 C6.2 61.7, -1.37 55.98, 0 45 M15 60 C3.07 61.66, -1.89 53.02, 0 45 M0 45 C0.18 32.61, -0.73 23.17, 0 15 M0 45 C0.01 35.33, 0.6 25.94, 0 15 M0 15 C-1.39 4.48, 3.87 0.08, 15 0 M0 15 C1.38 4.5, 3.78 2.07, 15 0" stroke="#000000" stroke-width="1" fill="none"></path></g><g transform="translate(236.1582397530426 713.2893721111227) rotate(0 54.51996612548828 12)"><text x="54.51996612548828" y="0" font-family="Virgil, Yozai, Segoe UI Emoji" font-size="20px" fill="#000000" text-anchor="middle" style="white-space: pre;" direction="ltr" dominant-baseline="text-before-edge">REST_API</text></g><g stroke-linecap="round" transform="translate(18.075020658799758 520.5703751858025) rotate(0 102.33947837630967 43.014959023192745)"><path d="M21.51 0 M21.51 0 C60.3 2.88, 99.28 2.88, 183.17 0 M21.51 0 C86.02 0.67, 149.48 0.46, 183.17 0 M183.17 0 C196.46 1.54, 204.47 5.92, 204.68 21.51 M183.17 0 C199.74 1.86, 206.46 6, 204.68 21.51 M204.68 21.51 C204.48 33.26, 203.29 45.83, 204.68 64.52 M204.68 21.51 C205.27 33.99, 204.16 45.77, 204.68 64.52 M204.68 64.52 C206.21 79.46, 198.54 86.17, 183.17 86.03 M204.68 64.52 C205.06 80.7, 197.95 87.14, 183.17 86.03 M183.17 86.03 C149.53 83.84, 115.32 84.11, 21.51 86.03 M183.17 86.03 C138.76 86.29, 92.47 85.93, 21.51 86.03 M21.51 86.03 C5.49 87.47, -1.64 77.14, 0 64.52 M21.51 86.03 C8.45 83.93, -1.51 78.76, 0 64.52 M0 64.52 C0.51 55.17, -1.12 46.11, 0 21.51 M0 64.52 C-0.95 52.32, -0.82 40.69, 0 21.51 M0 21.51 C1.2 6.73, 6.1 1.8, 21.51 0 M0 21.51 C1 8.31, 7.9 -1.92, 21.51 0" stroke="#000000" stroke-width="1" fill="none"></path></g><g transform="translate(67.05455183051959 551.5853342089953) rotate(0 53.359947204589844 12)"><text x="53.359947204589844" y="0" font-family="Virgil, Yozai, Segoe UI Emoji" font-size="20px" fill="#000000" text-anchor="middle" style="white-space: pre;" direction="ltr" dominant-baseline="text-before-edge">Offline App</text></g><g stroke-linecap="round"><g transform="translate(551.1169226630292 674.7976931237336) rotate(0 129.78064160775085 -59.75416050630544)"><path d="M-1.11 -0.52 C42.05 -20.64, 216.49 -99.67, 259.8 -119.55 M0.5 1.82 C43.46 -17.59, 215.52 -97.95, 258.98 -118.03" stroke="#000000" stroke-width="1" fill="none"></path></g><g transform="translate(551.1169226630292 674.7976931237336) rotate(0 129.78064160775085 -59.75416050630544)"><path d="M236.88 -96.44 C245.25 -105.71, 252.63 -113.22, 260.53 -118.24 M238.51 -97.36 C242.39 -102.71, 247.32 -107.03, 258.8 -118.58" stroke="#000000" stroke-width="1" fill="none"></path></g><g transform="translate(551.1169226630292 674.7976931237336) rotate(0 129.78064160775085 -59.75416050630544)"><path d="M228.23 -115.05 C239.96 -117.42, 250.5 -118.11, 260.53 -118.24 M229.87 -115.97 C235.98 -116.98, 242.96 -116.88, 258.8 -118.58" stroke="#000000" stroke-width="1" fill="none"></path></g></g><mask></mask><g stroke-linecap="round"><g transform="translate(551.1169226630293 735.3312160080668) rotate(0 129.38643247453007 49.82745915413537)"><path d="M0.24 -0.04 C43.43 16.61, 215.01 82.6, 257.99 99.37 M-1.09 -1.1 C42.58 15.77, 217.27 84.12, 260.29 100.76" stroke="#000000" stroke-width="1" fill="none"></path></g><g transform="translate(551.1169226630293 735.3312160080668) rotate(0 129.38643247453007 49.82745915413537)"><path d="M230.24 98.79 C236.04 99.12, 244.27 100.1, 259.04 102.69 M230.12 99.42 C241.42 100.54, 252.96 100.2, 260.34 100.57" stroke="#000000" stroke-width="1" fill="none"></path></g><g transform="translate(551.1169226630293 735.3312160080668) rotate(0 129.38643247453007 49.82745915413537)"><path d="M237.68 79.67 C241.86 83.98, 248.55 88.92, 259.04 102.69 M237.56 80.3 C246.18 88.66, 254.88 95.6, 260.34 100.57" stroke="#000000" stroke-width="1" fill="none"></path></g></g><mask></mask><g stroke-linecap="round" transform="translate(10 834.7073473280251) rotate(0 102.33947837630967 43.014959023192745)"><path d="M21.51 0 M21.51 0 C66.94 -0.01, 117.46 -1.71, 183.17 0 M21.51 0 C84.53 0.9, 146.81 1.33, 183.17 0 M183.17 0 C198.34 -0.59, 206.36 7.76, 204.68 21.51 M183.17 0 C198.24 -1.48, 202.82 4.99, 204.68 21.51 M204.68 21.51 C205.71 33.81, 205.61 42.33, 204.68 64.52 M204.68 21.51 C204.4 37.37, 205.53 52.91, 204.68 64.52 M204.68 64.52 C203.03 79.14, 199 84.92, 183.17 86.03 M204.68 64.52 C204.42 81.15, 197.41 87.11, 183.17 86.03 M183.17 86.03 C140.47 87.17, 99.63 89.02, 21.51 86.03 M183.17 86.03 C150.11 86.32, 117.42 86.65, 21.51 86.03 M21.51 86.03 C5.85 85.06, 1.84 79.15, 0 64.52 M21.51 86.03 C9.11 84.6, -1.61 77.96, 0 64.52 M0 64.52 C-0.39 54.94, -0.21 47.19, 0 21.51 M0 64.52 C1.21 48.4, 1.15 34.49, 0 21.51 M0 21.51 C-0.91 8.81, 8.16 -1.68, 21.51 0 M0 21.51 C1.74 7.45, 5.25 -0.04, 21.51 0" stroke="#000000" stroke-width="1" fill="none"></path></g><g transform="translate(29.77954185287217 865.7223063512179) rotate(0 82.5599365234375 12)"><text x="82.5599365234375" y="0" font-family="Virgil, Yozai, Segoe UI Emoji" font-size="20px" fill="#000000" text-anchor="middle" style="white-space: pre;" direction="ltr" dominant-baseline="text-before-edge">Admin Dashboard</text></g><g stroke-linecap="round"><g transform="translate(120.68158063926558 610.6794848611377) rotate(0 55.37614504750809 61.403661195091075)"><path d="M1.12 0.36 C3.24 14.45, -5.82 64.13, 12.52 84.59 C30.85 105.05, 94.87 116.88, 111.14 123.12 M0.24 -0.5 C2.22 13.24, -6.84 61.91, 11.54 82.76 C29.93 103.61, 94.16 117.94, 110.57 124.6" stroke="#1e1e1e" stroke-width="2" fill="none"></path></g><g transform="translate(120.68158063926558 610.6794848611377) rotate(0 55.37614504750809 61.403661195091075)"><path d="M81.19 125.73 C89.94 125.82, 97.97 123.75, 109.28 123.66 M79.62 125.16 C88.89 126.05, 96.86 125.14, 110.63 125.54" stroke="#1e1e1e" stroke-width="2" fill="none"></path></g><g transform="translate(120.68158063926558 610.6794848611377) rotate(0 55.37614504750809 61.403661195091075)"><path d="M87.43 106.18 C94.43 111.83, 100.7 115.24, 109.28 123.66 M85.87 105.61 C93.57 111.45, 99.94 115.54, 110.63 125.54" stroke="#1e1e1e" stroke-width="2" fill="none"></path></g></g><mask></mask><g stroke-linecap="round"><g transform="translate(109.60900692322116 833.6267606665328) rotate(0 61.28637190441634 -52.083581160722645)"><path d="M-0.31 -0.37 C3.01 -11.94, -1.26 -51.36, 19.37 -68.83 C40 -86.3, 106.24 -99.16, 123.49 -105.19 M1.73 -1.61 C5.48 -13.53, 1.48 -53.21, 21.72 -70.34 C41.97 -87.48, 106.29 -98.75, 123.21 -104.41" stroke="#1e1e1e" stroke-width="2" fill="none"></path></g><g transform="translate(109.60900692322116 833.6267606665328) rotate(0 61.28637190441634 -52.083581160722645)"><path d="M97.87 -88.55 C106.66 -90.16, 109.34 -95.52, 121.8 -106.25 M99.23 -87.3 C104.65 -91.78, 111.07 -95.7, 122.7 -104.95" stroke="#1e1e1e" stroke-width="2" fill="none"></path></g><g transform="translate(109.60900692322116 833.6267606665328) rotate(0 61.28637190441634 -52.083581160722645)"><path d="M92.73 -108.41 C102.93 -104.93, 106.91 -105.22, 121.8 -106.25 M94.08 -107.16 C100.62 -106.84, 108.28 -106, 122.7 -104.95" stroke="#1e1e1e" stroke-width="2" fill="none"></path></g></g><mask></mask></svg>